<?xml version="1.0" encoding="UTF-8" standalone="no"?><!-- Generator: Gravit.io --><svg xmlns="http://www.w3.org/2000/svg" xmlns:xlink="http://www.w3.org/1999/xlink" style="isolation:isolate" viewBox="0 0 864 864" width="864pt" height="864pt"><defs><clipPath id="_clipPath_rDN8jEnugh9NWTc3DYJzOsJiUa7ZgGIh"><rect width="864" height="864"/></clipPath></defs><g clip-path="url(#_clipPath_rDN8jEnugh9NWTc3DYJzOsJiUa7ZgGIh)"><g><path d="M 160.457 0 L 703.543 0 C 792.102 0 864 71.898 864 160.457 L 864 703.543 C 864 792.102 792.102 864 703.543 864 L 160.457 864 C 71.898 864 0 792.102 0 703.543 L 0 160.457 C 0 71.898 71.898 0 160.457 0 Z" style="stroke:none;fill:#262949;stroke-miterlimit:10;"/><clipPath id="_clipPath_H3SwAbIFEYImtFHuzCnyag9IsSLcqA49"><path d="M 160.457 0 L 703.543 0 C 792.102 0 864 71.898 864 160.457 L 864 703.543 C 864 792.102 792.102 864 703.543 864 L 160.457 864 C 71.898 864 0 792.102 0 703.543 L 0 160.457 C 0 71.898 71.898 0 160.457 0 Z" style="stroke:none;fill:#262949;stroke-miterlimit:10;"/></clipPath><g clip-path="url(#_clipPath_H3SwAbIFEYImtFHuzCnyag9IsSLcqA49)"><path d=" M -1290.705 2160.78 L -1620 1924.765 L 1807.011 -807.968 L -1290.705 2160.78 Z " fill="rgb(21,194,134)"/><path d=" M -100.293 1390.789 L -972.594 2388.113 L -1290.705 2160.78 L 1807.011 -807.968 L -100.293 1390.789 Z " fill="rgb(251,191,84)"/><path d=" M -352.516 2869.409 L -666.871 2625.411 L 1807.011 -807.968 L -352.516 2869.409 Z " fill="rgb(236,15,71)"/><path d=" M -666.871 2625.411 L -981.226 2381.413 L 1807.011 -807.968 L -666.871 2625.411 Z " fill="rgb(238,107,59)"/></g><circle vector-effect="non-scaling-stroke" cx="199" cy="199" r="124" fill="rgb(255,255,255)"/></g></g></svg>